<svg xmlns="http://www.w3.org/2000/svg" width="800" height="500" viewBox="0 0 800 500" fill="none">
  <defs>
    <linearGradient id="g1" x1="0" y1="0" x2="1" y2="1">
      <stop offset="0%" stop-color="#0F172A"/>
      <stop offset="100%" stop-color="#0284C7"/>
    </linearGradient>
    <linearGradient id="g2" x1="0" y1="0" x2="1" y2="1">
      <stop offset="0%" stop-color="#FDBA74"/>
      <stop offset="100%" stop-color="#FB7185"/>
    </linearGradient>
  </defs>
  <rect width="800" height="500" rx="28" fill="#F8FAFC"/>
  <circle cx="660" cy="96" r="58" fill="#BAE6FD"/>
  <circle cx="110" cy="410" r="74" fill="#FED7AA"/>
  <rect x="62" y="60" width="500" height="300" rx="20" fill="url(#g1)"/>
  <rect x="90" y="95" width="350" height="16" rx="8" fill="#E2E8F0" opacity="0.9"/>
  <rect x="90" y="126" width="250" height="12" rx="6" fill="#E2E8F0" opacity="0.8"/>
  <rect x="90" y="160" width="430" height="110" rx="14" fill="#0EA5E9" opacity="0.35"/>
  <path d="M116 243C178 188 245 220 291 200C334 183 370 139 420 148C468 156 498 206 525 244" stroke="#F8FAFC" stroke-width="6" stroke-linecap="round"/>
  <rect x="528" y="214" width="34" height="22" rx="6" fill="#F8FAFC"/>
  <rect x="520" y="285" width="210" height="150" rx="20" fill="#FFFFFF" stroke="#E2E8F0" stroke-width="3"/>
  <rect x="545" y="312" width="160" height="14" rx="7" fill="#CBD5E1"/>
  <rect x="545" y="338" width="110" height="12" rx="6" fill="#CBD5E1"/>
  <rect x="545" y="366" width="88" height="12" rx="6" fill="#CBD5E1"/>
  <circle cx="682" cy="375" r="24" fill="url(#g2)"/>
  <text x="58" y="445" fill="#334155" font-family="Arial, sans-serif" font-size="22" font-weight="700">Visa Planning Dashboard</text>
</svg>
